HIERARCHY
ROOT mixamorig:Hips
{
	OFFSET 0.000000 201.639420 0.000000
	CHANNELS 6 Xposition Yposition Zposition Xrotation Yrotation Zrotation
	JOINT mixamorig:Spine
	{
		OFFSET 0.006200 19.524994 -2.481800
		CHANNELS 3 Xrotation Yrotation Zrotation
		JOINT mixamorig:Spine1
		{
			OFFSET -0.000900 22.835007 -2.825400
			CHANNELS 3 Xrotation Yrotation Zrotation
			JOINT mixamorig:Spine2
			{
				OFFSET -0.020600 26.552490 -3.193300
				CHANNELS 3 Xrotation Yrotation Zrotation
				JOINT mixamorig:Neck
				{
					OFFSET -0.060000 30.701813 1.352200
					CHANNELS 3 Xrotation Yrotation Zrotation
					JOINT mixamorig:Head
					{
						OFFSET -0.087200 22.547607 3.670900
						CHANNELS 3 Xrotation Yrotation Zrotation
						JOINT mixamorig:HeadTop_End
						{
							OFFSET -0.830600 40.355194 7.893500
							CHANNELS 3 Xrotation Yrotation Zrotation
							End Site
							{
								OFFSET 0.000000 30.592346 0.000000
							}
						}
						JOINT mixamorig:RightEye
						{
							OFFSET -6.302100 18.118591 16.197100
							CHANNELS 3 Xrotation Yrotation Zrotation
							End Site
							{
								OFFSET 0.000000 30.592346 0.000000
							}
						}
						JOINT mixamorig:LeftEye
						{
							OFFSET 6.741500 18.382690 16.401899
							CHANNELS 3 Xrotation Yrotation Zrotation
							End Site
							{
								OFFSET 0.000000 30.592346 0.000000
							}
						}
					}
				}
				JOINT mixamorig:LeftShoulder
				{
					OFFSET 11.924900 18.230499 1.425400
					CHANNELS 3 Xrotation Yrotation Zrotation
					JOINT mixamorig:LeftArm
					{
						OFFSET 25.435989 -0.697632 -5.229300
						CHANNELS 3 Xrotation Yrotation Zrotation
						JOINT mixamorig:LeftForeArm
						{
							OFFSET 54.684776 0.000000 0.000000
							CHANNELS 3 Xrotation Yrotation Zrotation
							JOINT mixamorig:LeftHand
							{
								OFFSET 55.098175 0.000000 0.000000
								CHANNELS 3 Xrotation Yrotation Zrotation
								JOINT mixamorig:LeftHandMiddle1
								{
									OFFSET 23.369751 0.000000 0.000000
									CHANNELS 3 Xrotation Yrotation Zrotation
									JOINT mixamorig:LeftHandMiddle2
									{
										OFFSET 6.378677 0.000000 0.000000
										CHANNELS 3 Xrotation Yrotation Zrotation
										JOINT mixamorig:LeftHandMiddle3
										{
											OFFSET 6.148331 0.000000 0.000000
											CHANNELS 3 Xrotation Yrotation Zrotation
											JOINT mixamorig:LeftHandMiddle4
											{
												OFFSET 6.582504 0.000000 0.000000
												CHANNELS 3 Xrotation Yrotation Zrotation
												End Site
												{
													OFFSET -1.168900 6.395691 1.028606
												}
											}
										}
									}
								}
								JOINT mixamorig:LeftHandThumb1
								{
									OFFSET 7.235672 -3.848206 5.434273
									CHANNELS 3 Xrotation Yrotation Zrotation
									JOINT mixamorig:LeftHandThumb2
									{
										OFFSET 6.568451 -3.792297 3.792300
										CHANNELS 3 Xrotation Yrotation Zrotation
										JOINT mixamorig:LeftHandThumb3
										{
											OFFSET 6.063080 -3.500519 3.500518
											CHANNELS 3 Xrotation Yrotation Zrotation
											JOINT mixamorig:LeftHandThumb4
											{
												OFFSET 4.793182 -2.767334 2.767349
												CHANNELS 3 Xrotation Yrotation Zrotation
												End Site
												{
													OFFSET 0.101639 6.054260 1.275483
												}
											}
										}
									}
								}
								JOINT mixamorig:LeftHandIndex1
								{
									OFFSET 23.101074 -0.309540 4.992809
									CHANNELS 3 Xrotation Yrotation Zrotation
									JOINT mixamorig:LeftHandIndex2
									{
										OFFSET 6.226883 0.000000 0.000000
										CHANNELS 3 Xrotation Yrotation Zrotation
										JOINT mixamorig:LeftHandIndex3
										{
											OFFSET 6.094330 0.000000 0.000000
											CHANNELS 3 Xrotation Yrotation Zrotation
											JOINT mixamorig:LeftHandIndex4
											{
												OFFSET 5.482605 0.000000 0.000000
												CHANNELS 3 Xrotation Yrotation Zrotation
												End Site
												{
													OFFSET -1.427902 5.233032 0.797164
												}
											}
										}
									}
								}
								JOINT mixamorig:LeftHandRing1
								{
									OFFSET 22.299240 0.021149 -3.964172
									CHANNELS 3 Xrotation Yrotation Zrotation
									JOINT mixamorig:LeftHandRing2
									{
										OFFSET 6.321869 0.000000 0.000000
										CHANNELS 3 Xrotation Yrotation Zrotation
										JOINT mixamorig:LeftHandRing3
										{
											OFFSET 5.899796 0.000000 0.000000
											CHANNELS 3 Xrotation Yrotation Zrotation
											JOINT mixamorig:LeftHandRing4
											{
												OFFSET 6.517899 0.000000 0.000000
												CHANNELS 3 Xrotation Yrotation Zrotation
												End Site
												{
													OFFSET -1.637299 6.232208 0.980890
												}
											}
										}
									}
								}
								JOINT mixamorig:LeftHandPinky1
								{
									OFFSET 20.463791 -0.302338 -8.562233
									CHANNELS 3 Xrotation Yrotation Zrotation
									JOINT mixamorig:LeftHandPinky2
									{
										OFFSET 6.908646 0.000000 0.000000
										CHANNELS 3 Xrotation Yrotation Zrotation
										JOINT mixamorig:LeftHandPinky3
										{
											OFFSET 4.622849 0.000000 0.000000
											CHANNELS 3 Xrotation Yrotation Zrotation
											JOINT mixamorig:LeftHandPinky4
											{
												OFFSET 5.216080 0.000000 0.000000
												CHANNELS 3 Xrotation Yrotation Zrotation
												End Site
												{
													OFFSET -0.606308 5.116241 0.814926
												}
											}
										}
									}
								}
							}
						}
					}
				}
				JOINT mixamorig:RightShoulder
				{
					OFFSET -12.001300 18.284088 1.348900
					CHANNELS 3 Xrotation Yrotation Zrotation
					JOINT mixamorig:RightArm
					{
						OFFSET -25.308500 -0.751312 -5.164599
						CHANNELS 3 Xrotation Yrotation Zrotation
						JOINT mixamorig:RightForeArm
						{
							OFFSET -54.684429 0.000000 0.000000
							CHANNELS 3 Xrotation Yrotation Zrotation
							JOINT mixamorig:RightHand
							{
								OFFSET -55.150291 0.000000 0.000000
								CHANNELS 3 Xrotation Yrotation Zrotation
								JOINT mixamorig:RightHandMiddle1
								{
									OFFSET -23.317566 0.000000 0.000000
									CHANNELS 3 Xrotation Yrotation Zrotation
									JOINT mixamorig:RightHandMiddle2
									{
										OFFSET -6.378403 0.000000 0.000000
										CHANNELS 3 Xrotation Yrotation Zrotation
										JOINT mixamorig:RightHandMiddle3
										{
											OFFSET -6.148193 0.000000 0.000000
											CHANNELS 3 Xrotation Yrotation Zrotation
											JOINT mixamorig:RightHandMiddle4
											{
												OFFSET -6.583389 0.000000 0.000000
												CHANNELS 3 Xrotation Yrotation Zrotation
												End Site
												{
													OFFSET 1.171692 6.395905 1.029786
												}
											}
										}
									}
								}
								JOINT mixamorig:RightHandThumb1
								{
									OFFSET -7.190521 -3.860474 5.435846
									CHANNELS 3 Xrotation Yrotation Zrotation
									JOINT mixamorig:RightHandThumb2
									{
										OFFSET -6.567429 -3.791718 3.791708
										CHANNELS 3 Xrotation Yrotation Zrotation
										JOINT mixamorig:RightHandThumb3
										{
											OFFSET -6.062469 -3.500153 3.500166
											CHANNELS 3 Xrotation Yrotation Zrotation
											JOINT mixamorig:RightHandThumb4
											{
												OFFSET -4.792618 -2.767029 2.767022
												CHANNELS 3 Xrotation Yrotation Zrotation
												End Site
												{
													OFFSET -0.100327 6.053253 1.276754
												}
											}
										}
									}
								}
								JOINT mixamorig:RightHandIndex1
								{
									OFFSET -23.048981 -0.310791 4.992554
									CHANNELS 3 Xrotation Yrotation Zrotation
									JOINT mixamorig:RightHandIndex2
									{
										OFFSET -6.227539 0.000000 0.000000
										CHANNELS 3 Xrotation Yrotation Zrotation
										JOINT mixamorig:RightHandIndex3
										{
											OFFSET -6.095047 0.000000 0.000000
											CHANNELS 3 Xrotation Yrotation Zrotation
											JOINT mixamorig:RightHandIndex4
											{
												OFFSET -5.484772 0.000000 0.000000
												CHANNELS 3 Xrotation Yrotation Zrotation
												End Site
												{
													OFFSET 1.420593 5.237305 0.797056
												}
											}
										}
									}
								}
								JOINT mixamorig:RightHandRing1
								{
									OFFSET -22.246323 0.020569 -3.963762
									CHANNELS 3 Xrotation Yrotation Zrotation
									JOINT mixamorig:RightHandRing2
									{
										OFFSET -6.322128 0.000000 0.000000
										CHANNELS 3 Xrotation Yrotation Zrotation
										JOINT mixamorig:RightHandRing3
										{
											OFFSET -5.900024 0.000000 0.000000
											CHANNELS 3 Xrotation Yrotation Zrotation
											JOINT mixamorig:RightHandRing4
											{
												OFFSET -6.518356 0.000000 0.000000
												CHANNELS 3 Xrotation Yrotation Zrotation
												End Site
												{
													OFFSET 1.636398 6.232697 0.982186
												}
											}
										}
									}
								}
								JOINT mixamorig:RightHandPinky1
								{
									OFFSET -20.411011 -0.303314 -8.561701
									CHANNELS 3 Xrotation Yrotation Zrotation
									JOINT mixamorig:RightHandPinky2
									{
										OFFSET -6.907349 0.000000 0.000000
										CHANNELS 3 Xrotation Yrotation Zrotation
										JOINT mixamorig:RightHandPinky3
										{
											OFFSET -4.623840 0.000000 0.000000
											CHANNELS 3 Xrotation Yrotation Zrotation
											JOINT mixamorig:RightHandPinky4
											{
												OFFSET -5.218353 0.000000 0.000000
												CHANNELS 3 Xrotation Yrotation Zrotation
												End Site
												{
													OFFSET 0.602097 5.118835 0.816273
												}
											}
										}
									}
								}
							}
						}
					}
				}
			}
		}
	}
	JOINT mixamorig:LeftUpLeg
	{
		OFFSET 18.168400 -13.561905 -0.039000
		CHANNELS 3 Xrotation Yrotation Zrotation
		JOINT mixamorig:LeftLeg
		{
			OFFSET 0.577358 -80.825211 -3.695000
			CHANNELS 3 Xrotation Yrotation Zrotation
			JOINT mixamorig:LeftFoot
			{
				OFFSET -0.577356 -83.370262 -6.520700
				CHANNELS 3 Xrotation Yrotation Zrotation
				JOINT mixamorig:LeftToeBase
				{
					OFFSET 0.750401 -20.798306 25.135401
					CHANNELS 3 Xrotation Yrotation Zrotation
					JOINT mixamorig:LeftToe_End
					{
						OFFSET -0.000500 0.001200 19.917799
						CHANNELS 3 Xrotation Yrotation Zrotation
						End Site
						{
							OFFSET 0.000000 19.917805 0.000000
						}
					}
				}
			}
		}
	}
	JOINT mixamorig:RightUpLeg
	{
		OFFSET -18.162500 -13.585098 -0.041000
		CHANNELS 3 Xrotation Yrotation Zrotation
		JOINT mixamorig:RightLeg
		{
			OFFSET -0.595024 -80.945297 -3.631900
			CHANNELS 3 Xrotation Yrotation Zrotation
			JOINT mixamorig:RightFoot
			{
				OFFSET 0.595024 -83.218193 -6.561200
				CHANNELS 3 Xrotation Yrotation Zrotation
				JOINT mixamorig:RightToeBase
				{
					OFFSET -0.753601 -20.807106 25.115000
					CHANNELS 3 Xrotation Yrotation Zrotation
					JOINT mixamorig:RightToe_End
					{
						OFFSET 0.000299 0.001700 19.918200
						CHANNELS 3 Xrotation Yrotation Zrotation
						End Site
						{
							OFFSET 0.000000 19.918203 0.000000
						}
					}
				}
			}
		}
	}
}
MOTION
Frames: 4
Frame Time: 0.033333
-13.294047 200.520309 -17.309938 4.314550 -4.728432 1.168122 5.103060 3.858779 -0.321854 2.991726 2.867184 -1.819720 2.926901 2.833092 -1.954513 -9.493068 -0.565100 0.882844 -20.378284 -2.771353 5.070002 -0.000001 -0.000000 0.000000 -0.000001 -0.000000 0.000000 -0.000001 -0.000000 0.000000 0.458512 2.606267 -6.757460 25.580780 -52.523311 -38.981577 0.000004 -19.285263 0.000009 -48.778274 -12.182548 -11.665762 0.103234 1.190222 -9.913390 0.103893 1.194018 -9.945405 0.025935 0.598308 -4.964165 -0.000001 0.000000 -0.000003 -1.765993 13.580032 7.641506 4.742551 17.876574 1.476433 -0.125160 6.527500 3.024028 0.000001 -0.000001 -0.000001 0.103565 1.192122 -9.929405 0.103559 1.192125 -9.929405 0.025936 0.598306 -4.964160 -0.000000 0.000002 0.000002 0.103561 1.192124 -9.929401 0.103563 1.192129 -9.929396 0.025939 0.598301 -4.964171 0.000001 -0.000000 0.000001 0.787120 5.188582 -9.457051 0.096225 -2.863091 -10.432482 0.025937 0.598303 -4.964172 0.000000 0.000001 -0.000001 1.523272 1.245585 10.362050 10.129994 46.984998 46.447390 -0.000005 29.255934 0.000011 -32.820575 0.835400 -2.238336 0.104547 -1.203681 9.928035 0.104555 -1.203676 9.928032 0.026184 -0.604115 4.963447 -0.000002 0.000001 -0.000002 -2.082004 -13.461646 -8.150991 5.520683 -18.558737 -0.893697 -0.816678 -4.811724 -2.622783 -0.000001 -0.000000 -0.000001 0.104544 -1.203682 9.928034 0.104558 -1.203668 9.928034 0.026180 -0.604110 4.963463 0.000002 -0.000001 -0.000001 0.104550 -1.203683 9.928028 0.104559 -1.203676 9.928027 0.026179 -0.604104 4.963466 0.000001 0.000001 -0.000001 0.104552 -1.203686 9.928023 0.104550 -1.203664 9.928054 0.026181 -0.604114 4.963456 0.000001 -0.000001 -0.000000 -37.777278 16.859279 7.821290 51.658097 -0.584799 9.333371 0.576605 0.336746 -7.592126 -0.000008 -0.000002 -0.000002 -0.000001 -0.000000 -0.000000 -14.250534 -20.951709 0.517407 23.243363 7.351656 -3.432653 -16.235896 0.308106 -1.682479 0.000003 -0.000002 0.000000 -0.000000 -0.000001 0.000000 
-12.385391 200.743301 -11.504049 4.598465 -5.494986 1.370614 5.037495 4.307866 -0.769385 2.900549 3.300144 -1.941386 2.820745 3.261076 -2.100405 -9.571881 -0.591769 0.937390 -21.470198 -2.764094 4.545622 0.000001 -0.000000 -0.000001 0.000001 -0.000000 -0.000001 0.000001 -0.000000 -0.000001 0.445963 2.890030 -6.882942 25.092921 -51.446252 -39.866424 0.000004 -18.420141 0.000007 -49.894344 -11.995668 -13.522580 0.103232 1.190225 -9.913389 0.103893 1.194017 -9.945405 0.025936 0.598304 -4.964163 -0.000001 -0.000002 0.000000 -1.765991 13.580037 7.641506 4.742548 17.876576 1.476433 -0.125162 6.527498 3.024028 0.000002 -0.000001 -0.000000 0.103561 1.192123 -9.929404 0.103560 1.192125 -9.929405 0.025935 0.598310 -4.964162 -0.000000 -0.000000 -0.000001 0.103560 1.192124 -9.929401 0.103560 1.192129 -9.929399 0.025937 0.598301 -4.964172 0.000001 -0.000000 0.000001 0.787119 5.188582 -9.457053 0.096224 -2.863092 -10.432480 0.025932 0.598305 -4.964170 -0.000001 0.000001 0.000002 1.532194 1.257833 10.441979 9.610629 46.464896 45.649539 -0.000001 31.858430 0.000008 -34.274391 0.711779 -3.232380 0.104542 -1.203681 9.928031 0.104551 -1.203673 9.928033 0.026176 -0.604118 4.963446 0.000000 -0.000002 -0.000003 -2.082003 -13.461645 -8.150996 5.520681 -18.558742 -0.893698 -0.816673 -4.811725 -2.622782 0.000001 0.000001 0.000001 0.104546 -1.203683 9.928036 0.104557 -1.203672 9.928033 0.026181 -0.604112 4.963459 0.000003 -0.000002 0.000002 0.104547 -1.203681 9.928029 0.104560 -1.203679 9.928029 0.026180 -0.604104 4.963461 0.000001 -0.000000 -0.000001 0.104555 -1.203685 9.928021 0.104545 -1.203667 9.928051 0.026183 -0.604116 4.963452 0.000000 0.000001 -0.000001 -38.904583 17.826889 7.894590 43.131576 -3.053095 9.529792 -0.399987 0.552483 -9.958376 -0.000003 0.000004 -0.000000 0.000001 0.000001 -0.000000 -11.712665 -20.297837 -0.468097 20.930896 7.625586 -2.069827 -16.255420 0.524983 -1.231318 -0.000002 -0.000012 0.000000 -0.000000 -0.000002 -0.000000 
-11.374540 200.627991 -5.667768 5.207304 -6.039806 1.485068 4.816421 4.593447 -0.933447 2.685836 3.586376 -1.993050 2.596165 3.537057 -2.170880 -9.751065 -0.588753 0.872433 -22.770862 -2.721562 3.849662 0.000000 0.000000 0.000000 0.000000 0.000000 0.000000 0.000000 0.000000 0.000000 0.412337 3.501860 -7.139738 25.261593 -51.431523 -40.250069 0.000006 -16.876470 -0.000009 -49.898326 -11.935461 -12.945928 0.103233 1.190223 -9.913395 0.103893 1.194017 -9.945406 0.025933 0.598307 -4.964160 -0.000001 -0.000000 -0.000000 -1.765994 13.580036 7.641507 4.742550 17.876574 1.476433 -0.125159 6.527500 3.024030 -0.000001 -0.000000 -0.000000 0.103562 1.192121 -9.929411 0.103560 1.192122 -9.929401 0.025932 0.598307 -4.964162 -0.000000 0.000002 -0.000000 0.103561 1.192126 -9.929403 0.103562 1.192128 -9.929397 0.025937 0.598299 -4.964171 -0.000000 0.000002 0.000001 0.787118 5.188583 -9.457054 0.096222 -2.863093 -10.432480 0.025933 0.598306 -4.964171 0.000000 -0.000001 0.000002 1.517855 1.254442 10.273605 8.573374 46.033030 45.785808 -0.000007 33.582493 0.000002 -33.512269 1.172740 -5.269215 0.104540 -1.203684 9.928036 0.104561 -1.203673 9.928025 0.026181 -0.604117 4.963446 -0.000001 -0.000001 -0.000001 -2.082005 -13.461645 -8.150996 5.520674 -18.558741 -0.893697 -0.816674 -4.811726 -2.622781 -0.000004 -0.000001 0.000003 0.104539 -1.203685 9.928038 0.104557 -1.203667 9.928033 0.026185 -0.604109 4.963462 -0.000003 0.000001 0.000000 0.104545 -1.203687 9.928032 0.104555 -1.203674 9.928027 0.026180 -0.604107 4.963466 -0.000002 0.000001 -0.000003 0.104554 -1.203689 9.928021 0.104545 -1.203663 9.928054 0.026182 -0.604112 4.963457 -0.000001 0.000003 0.000001 -39.569516 21.071414 8.168333 32.389037 -5.529610 9.617975 -0.889621 0.770906 -12.684486 0.000004 -0.000002 0.000001 0.000000 -0.000000 0.000000 -9.916612 -19.712971 -1.434597 19.338381 7.656571 -0.786576 -16.304380 0.891939 -1.058790 -0.000000 0.000009 0.000001 0.000000 0.000000 0.000000 
-10.425205 200.165253 0.643435 5.605538 -6.091675 1.483814 4.651143 4.590370 -1.135262 2.491191 3.697539 -2.018802 2.399153 3.636410 -2.209221 -10.008371 -0.578957 0.859014 -23.548592 -2.616108 3.503941 0.000000 -0.000001 -0.000001 0.000000 -0.000001 -0.000001 0.000000 -0.000001 -0.000001 0.397595 3.736411 -7.241454 25.428168 -51.881693 -40.969930 0.000009 -14.157777 -0.000007 -50.747967 -12.552050 -12.305455 0.103233 1.190219 -9.913392 0.103896 1.194016 -9.945406 0.025933 0.598307 -4.964161 0.000001 0.000000 -0.000001 -1.765993 13.580032 7.641507 4.742550 17.876576 1.476433 -0.125162 6.527500 3.024028 -0.000002 -0.000001 0.000000 0.103561 1.192120 -9.929405 0.103563 1.192125 -9.929404 0.025935 0.598307 -4.964162 0.000001 -0.000001 -0.000001 0.103558 1.192123 -9.929400 0.103560 1.192127 -9.929397 0.025936 0.598298 -4.964177 -0.000000 -0.000003 -0.000001 0.787118 5.188581 -9.457053 0.096223 -2.863096 -10.432484 0.025932 0.598305 -4.964171 -0.000002 0.000000 0.000001 1.513549 1.238190 10.260162 7.603355 45.602526 46.097981 0.000001 34.923536 0.000009 -32.167954 2.020627 -6.899273 0.104542 -1.203681 9.928038 0.104550 -1.203671 9.928034 0.026176 -0.604114 4.963446 0.000003 -0.000000 -0.000001 -2.082010 -13.461644 -8.150997 5.520682 -18.558737 -0.893696 -0.816677 -4.811724 -2.622782 -0.000002 0.000000 0.000002 0.104544 -1.203685 9.928037 0.104561 -1.203668 9.928035 0.026185 -0.604110 4.963463 0.000001 -0.000001 -0.000001 0.104547 -1.203683 9.928030 0.104559 -1.203674 9.928027 0.026171 -0.604104 4.963461 -0.000001 0.000001 -0.000002 0.104556 -1.203684 9.928023 0.104548 -1.203664 9.928053 0.026183 -0.604116 4.963454 0.000002 0.000003 0.000001 -38.966161 25.520782 8.450105 20.162493 -7.194667 8.137469 -1.687607 1.048276 -15.365967 -0.000001 0.000003 0.000002 0.000000 0.000001 0.000000 -7.905971 -19.103165 -1.907690 18.271198 7.610108 -0.285710 -16.705207 0.539761 -0.799054 0.000000 0.000008 0.000000 -0.000000 -0.000002 -0.000000 
